<?xml version="1.0" encoding="UTF-8" standalone="no"?>
<!-- Created with Inkscape (http://www.inkscape.org/) -->

<svg
   width="32"
   height="32"
   viewBox="0 0 8.4666665 8.4666666"
   version="1.1"
   id="svg5"
   inkscape:version="1.2.2 (b0a8486541, 2022-12-01)"
   sodipodi:docname="Cake.svg"
   xmlns:inkscape="http://www.inkscape.org/namespaces/inkscape"
   xmlns:sodipodi="http://sodipodi.sourceforge.net/DTD/sodipodi-0.dtd"
   xmlns="http://www.w3.org/2000/svg"
   xmlns:svg="http://www.w3.org/2000/svg">
  <sodipodi:namedview
     id="namedview7"
     pagecolor="#ffffff"
     bordercolor="#000000"
     borderopacity="0.25"
     inkscape:showpageshadow="2"
     inkscape:pageopacity="0.0"
     inkscape:pagecheckerboard="0"
     inkscape:deskcolor="#d1d1d1"
     inkscape:document-units="mm"
     showgrid="true"
     inkscape:zoom="9.5144352"
     inkscape:cx="10.773104"
     inkscape:cy="17.604829"
     inkscape:window-width="1440"
     inkscape:window-height="828"
     inkscape:window-x="0"
     inkscape:window-y="0"
     inkscape:window-maximized="1"
     inkscape:current-layer="layer1">
    <inkscape:grid
       type="xygrid"
       id="grid706"
       spacingx="1.0583333"
       spacingy="1.0583333" />
  </sodipodi:namedview>
  <defs
     id="defs2" />
  <g
     inkscape:label="Слой 1"
     inkscape:groupmode="layer"
     id="layer1">
    <path
       id="rect28380"
       style="opacity:1;fill:#ffffff;fill-opacity:1;stroke:#000000;stroke-width:0.264583;stroke-dasharray:none"
       d="m 1.0583331,3.1749999 2e-7,3.1750001 c 0,0.5845013 1.4214959,1.0583333 3.175,1.0583333 1.7535041,0 3.175,-0.473832 3.175,-1.0583333 l -2e-7,-3.1750001 z"
       sodipodi:nodetypes="cssscc" />
    <path
       style="opacity:1;fill:#ffffff;fill-opacity:1;stroke:#000000;stroke-width:0.264583;stroke-dasharray:none"
       d="m 1.0583333,4.233333 c 0,0 -10e-8,2.1166668 1.0583333,2.1166668 1.0583333,0 0,-1.0583333 1.0583333,-1.0583333 1.0583333,0 0,1.0583333 1.058333,1.0583333 1.0583333,0 1e-7,-1.0583331 1.0583335,-1.0583331 0.5291666,0 0.5813491,1.0583331 1.0583334,1.0583331 1.0583333,0 1.0583333,-2.1166666 1.0583333,-2.1166666 L 7.408333,3.175 H 1.0583333 Z"
       id="path28407"
       sodipodi:nodetypes="cscssscccc" />
    <ellipse
       style="opacity:1;fill:#ffffff;fill-opacity:1;stroke:#000000;stroke-width:0.264583;stroke-dasharray:none"
       id="path28388"
       cx="4.2333331"
       cy="3.175"
       rx="3.175"
       ry="1.0583333" />
  </g>
</svg>
