<?xml version="1.0" encoding="UTF-8" standalone="no"?>
<!-- Created with Inkscape (http://www.inkscape.org/) -->

<svg
   width="32"
   height="32"
   viewBox="0 0 8.4666665 8.4666666"
   version="1.1"
   id="svg5"
   inkscape:version="1.2.2 (b0a8486541, 2022-12-01)"
   sodipodi:docname="P.svg"
   xmlns:inkscape="http://www.inkscape.org/namespaces/inkscape"
   xmlns:sodipodi="http://sodipodi.sourceforge.net/DTD/sodipodi-0.dtd"
   xmlns="http://www.w3.org/2000/svg"
   xmlns:svg="http://www.w3.org/2000/svg">
  <sodipodi:namedview
     id="namedview7"
     pagecolor="#ffffff"
     bordercolor="#000000"
     borderopacity="0.25"
     inkscape:showpageshadow="2"
     inkscape:pageopacity="0.0"
     inkscape:pagecheckerboard="0"
     inkscape:deskcolor="#d1d1d1"
     inkscape:document-units="mm"
     showgrid="true"
     inkscape:zoom="9.5144352"
     inkscape:cx="-7.5148969"
     inkscape:cy="17.499725"
     inkscape:window-width="1440"
     inkscape:window-height="828"
     inkscape:window-x="0"
     inkscape:window-y="0"
     inkscape:window-maximized="1"
     inkscape:current-layer="layer1">
    <inkscape:grid
       type="xygrid"
       id="grid706"
       spacingx="1.0583333"
       spacingy="1.0583333" />
  </sodipodi:namedview>
  <defs
     id="defs2" />
  <g
     inkscape:label="Слой 1"
     inkscape:groupmode="layer"
     id="layer1">
    <circle
       style="opacity:1;fill:#ffffff;fill-opacity:1;stroke:#000000;stroke-width:0.264583;stroke-dasharray:none"
       id="path2655"
       cx="4.2333331"
       cy="3.175"
       r="2.1166666" />
    <path
       style="opacity:1;fill:#ffffff;fill-opacity:0;stroke:#000000;stroke-width:0.187088;stroke-dasharray:none"
       d="m 4.233333,7.408333 c 0,0 -1.058333,0 -1.058333,-0.5291666 0,-0.5291667 2.1166663,-0.5291667 2.1166663,-1.0583334 0,-0.5291665 -1.0583333,-0.5291665 -1.0583333,-0.5291665"
       id="path2711" />
    <g
       aria-label="P"
       id="text6448"
       style="font-size:3.175px;text-align:center;text-anchor:middle;stroke-width:0.264583">
      <path
         d="m 4.1809463,1.9663831 q 0.4445,0 0.6477,0.174625 0.2032,0.174625 0.2032,0.492125 0,0.187325 -0.085725,0.352425 -0.08255,0.161925 -0.282575,0.263525 -0.19685,0.1016 -0.536575,0.1016 h -0.26035 v 0.88265 h -0.28575 v -2.26695 z m -0.0254,0.244475 h -0.288925 v 0.89535 h 0.2286 q 0.32385,0 0.4826,-0.104775 0.15875,-0.104775 0.15875,-0.3556 0,-0.219075 -0.1397,-0.327025 -0.1397,-0.10795 -0.441325,-0.10795 z"
         id="path4714" />
    </g>
  </g>
</svg>
