<?xml version="1.0" encoding="UTF-8" standalone="no"?>
<!-- Created with Inkscape (http://www.inkscape.org/) -->

<svg
   width="32"
   height="32"
   viewBox="0 0 8.4666665 8.4666666"
   version="1.1"
   id="svg5"
   inkscape:version="1.2.2 (b0a8486541, 2022-12-01)"
   sodipodi:docname="S.svg"
   xmlns:inkscape="http://www.inkscape.org/namespaces/inkscape"
   xmlns:sodipodi="http://sodipodi.sourceforge.net/DTD/sodipodi-0.dtd"
   xmlns="http://www.w3.org/2000/svg"
   xmlns:svg="http://www.w3.org/2000/svg">
  <sodipodi:namedview
     id="namedview7"
     pagecolor="#ffffff"
     bordercolor="#000000"
     borderopacity="0.25"
     inkscape:showpageshadow="2"
     inkscape:pageopacity="0.0"
     inkscape:pagecheckerboard="0"
     inkscape:deskcolor="#d1d1d1"
     inkscape:document-units="mm"
     showgrid="true"
     inkscape:zoom="9.5144352"
     inkscape:cx="6.148552"
     inkscape:cy="17.499725"
     inkscape:window-width="1440"
     inkscape:window-height="828"
     inkscape:window-x="0"
     inkscape:window-y="0"
     inkscape:window-maximized="1"
     inkscape:current-layer="layer1">
    <inkscape:grid
       type="xygrid"
       id="grid706"
       spacingx="1.0583333"
       spacingy="1.0583333" />
  </sodipodi:namedview>
  <defs
     id="defs2" />
  <g
     inkscape:label="Слой 1"
     inkscape:groupmode="layer"
     id="layer1">
    <circle
       style="opacity:1;fill:#ffffff;fill-opacity:1;stroke:#000000;stroke-width:0.264583;stroke-dasharray:none"
       id="path2655"
       cx="4.2333331"
       cy="3.175"
       r="2.1166666" />
    <path
       style="opacity:1;fill:#ffffff;fill-opacity:0;stroke:#000000;stroke-width:0.187088;stroke-dasharray:none"
       d="m 4.233333,7.408333 c 0,0 -1.058333,0 -1.058333,-0.5291666 0,-0.5291667 2.1166663,-0.5291667 2.1166663,-1.0583334 0,-0.5291665 -1.0583333,-0.5291665 -1.0583333,-0.5291665"
       id="path2711" />
    <g
       aria-label="S"
       id="text2870"
       style="font-size:3.175px;text-align:center;text-anchor:middle;opacity:1;stroke-width:0.264583">
      <path
         d="m 4.9556459,3.6269081 q 0,0.301625 -0.219075,0.4699 -0.219075,0.168275 -0.5905499,0.168275 -0.1905,0 -0.352425,-0.028575 -0.161925,-0.028575 -0.269875,-0.079375 v -0.27305 q 0.1143,0.0508 0.282575,0.092075 0.17145,0.041275 0.352425,0.041275 0.2539999,0 0.3809999,-0.098425 0.130175,-0.098425 0.130175,-0.2667 0,-0.111125 -0.047625,-0.187325 -0.047625,-0.0762 -0.1651,-0.1397 -0.1143,-0.066675 -0.3206749,-0.1397 -0.288925,-0.104775 -0.43815,-0.257175 -0.14605,-0.1524 -0.14605,-0.415925 0,-0.180975 0.092075,-0.307975 0.092075,-0.130175 0.254,-0.200025 0.1651,-0.06985 0.3778249,-0.06985 0.187325,0 0.3429,0.034925 0.155575,0.034925 0.282575,0.092075 l -0.0889,0.244475 q -0.117475,-0.0508 -0.257175,-0.085725 -0.136525,-0.034925 -0.28575,-0.034925 -0.2127249,0 -0.3206749,0.092075 -0.10795,0.0889 -0.10795,0.238125 0,0.1143 0.047625,0.1905 0.047625,0.0762 0.155575,0.136525 0.10795,0.060325 0.2920999,0.130175 0.200025,0.073025 0.33655,0.15875 0.1397,0.08255 0.20955,0.200025 0.073025,0.117475 0.073025,0.295275 z"
         id="path3588" />
    </g>
  </g>
</svg>
