<?xml version="1.0" encoding="UTF-8" standalone="no"?>
<!-- Created with Inkscape (http://www.inkscape.org/) -->

<svg
   width="32"
   height="32"
   viewBox="0 0 8.4666665 8.4666666"
   version="1.1"
   id="svg5"
   inkscape:version="1.2.2 (b0a8486541, 2022-12-01)"
   sodipodi:docname="U.svg"
   xmlns:inkscape="http://www.inkscape.org/namespaces/inkscape"
   xmlns:sodipodi="http://sodipodi.sourceforge.net/DTD/sodipodi-0.dtd"
   xmlns="http://www.w3.org/2000/svg"
   xmlns:svg="http://www.w3.org/2000/svg">
  <sodipodi:namedview
     id="namedview7"
     pagecolor="#ffffff"
     bordercolor="#000000"
     borderopacity="0.25"
     inkscape:showpageshadow="2"
     inkscape:pageopacity="0.0"
     inkscape:pagecheckerboard="0"
     inkscape:deskcolor="#d1d1d1"
     inkscape:document-units="mm"
     showgrid="true"
     inkscape:zoom="9.5144352"
     inkscape:cx="-2.9954484"
     inkscape:cy="17.499725"
     inkscape:window-width="1440"
     inkscape:window-height="828"
     inkscape:window-x="0"
     inkscape:window-y="0"
     inkscape:window-maximized="1"
     inkscape:current-layer="layer1">
    <inkscape:grid
       type="xygrid"
       id="grid706"
       spacingx="1.0583333"
       spacingy="1.0583333" />
  </sodipodi:namedview>
  <defs
     id="defs2" />
  <g
     inkscape:label="Слой 1"
     inkscape:groupmode="layer"
     id="layer1">
    <circle
       style="opacity:1;fill:#ffffff;fill-opacity:1;stroke:#000000;stroke-width:0.264583;stroke-dasharray:none"
       id="path2655"
       cx="4.2333331"
       cy="3.175"
       r="2.1166666" />
    <path
       style="opacity:1;fill:#ffffff;fill-opacity:0;stroke:#000000;stroke-width:0.187088;stroke-dasharray:none"
       d="m 4.233333,7.408333 c 0,0 -1.058333,0 -1.058333,-0.5291666 0,-0.5291667 2.1166663,-0.5291667 2.1166663,-1.0583334 0,-0.5291665 -1.0583333,-0.5291665 -1.0583333,-0.5291665"
       id="path2711" />
    <g
       aria-label="U"
       id="text6448"
       style="font-size:3.175px;text-align:center;text-anchor:middle;stroke-width:0.264583">
      <path
         d="m 5.1048692,3.4332331 q 0,0.23495 -0.09525,0.42545 -0.09525,0.187325 -0.2921,0.29845 -0.193675,0.10795 -0.4953,0.10795 -0.422275,0 -0.644525,-0.2286 -0.219075,-0.231775 -0.219075,-0.6096 v -1.4605 h 0.28575 v 1.470025 q 0,0.276225 0.14605,0.428625 0.149225,0.1524 0.447675,0.1524 0.307975,0 0.4445,-0.161925 0.1397,-0.1651 0.1397,-0.422275 v -1.46685 h 0.282575 z"
         id="path3963" />
    </g>
  </g>
</svg>
